<svg width="114" height="22" viewBox="0 0 114 22" fill="none" xmlns="http://www.w3.org/2000/svg">
<g clip-path="url(#clip0_1825_187)">
<path d="M11.6584 0C17.876 0.532766 24.6253 3.64631 28.533 8.08367C33.5071 13.7689 31.8191 19.4551 24.7143 20.787C17.6097 22.1189 7.83873 18.5668 2.86161 12.8816C-0.954022 8.52831 -0.864909 4.17502 2.59831 1.77656L22.3154 16.3456L11.6584 0Z" fill="currentColor"/>
</g>
<g clip-path="url(#clip1_1825_187)">
<path d="M108.992 20.8746L106.505 10.9262C106.184 9.76053 105.947 8.5732 105.796 7.37344H105.707C105.587 8.60197 105.379 9.82037 105.086 11.0194L102.599 20.8797H98.335L104.106 0.177734H107.481L113.431 20.8746H108.992Z" fill="currentColor"/>
<path d="M43.5434 0.0888672L46.0301 10.0373C46.3515 11.203 46.5883 12.3903 46.7389 13.59H46.828C46.9485 12.3616 47.1563 11.1431 47.4497 9.94409L49.9355 0.0888672H54.1983L48.5139 20.8749H45.1391L39.1895 0.0888672H43.5434Z" fill="currentColor"/>
<path d="M61.3903 0.0888672V20.8749H57.3047V0.0888672H61.3903Z" fill="currentColor"/>
<path d="M84.5702 0.0888672L86.6125 12.3433L88.3005 0.0888672H93.8066L95.9329 20.7857H91.7673L90.7872 5.86163H90.6981L90.0764 11.0136L88.3005 20.7847H85.1029L83.0595 10.8373L82.3508 6.21813V5.86163H82.2617L81.729 20.8739H77.2881L79.0641 0.177991H84.5702V0.0888672Z" fill="currentColor"/>
<path d="M71.6057 0.0888672C70.8813 0.670503 70.3286 1.43823 70.0068 2.30986C68.9416 4.88634 70.096 6.83996 71.0721 8.61635C71.2492 8.88271 71.3383 9.14907 71.5166 9.41543C73.737 13.2346 74.625 15.9883 72.9341 19.9857C72.845 20.252 72.5787 20.7847 72.5787 20.7847H67.6112C68.2504 20.2506 68.7656 19.5836 69.1209 18.8301C70.2751 16.0764 68.9436 13.589 67.6112 11.1908C66.1015 8.25986 64.4146 5.3279 66.1936 1.15328L66.7211 0.0888672H71.6057Z" fill="currentColor"/>
</g>
<defs>
<clipPath id="clip0_1825_187">
<rect width="31.3868" height="21.0669" fill="white"/>
</clipPath>
<clipPath id="clip1_1825_187">
<rect width="74.2411" height="20.7911" fill="white" transform="translate(39.1895 0.0888672)"/>
</clipPath>
</defs>
</svg>
